<svg xmlns="http://www.w3.org/2000/svg" xmlns:xlink="http://www.w3.org/1999/xlink" version="1.1" id="Livello_1" x="0px" y="0px" width="90px" height="90px" viewBox="0 0 90 90" enable-background="new 0 0 90 90" xml:space="preserve">
<path d="M64.155,82H24.829C22.682,82,21,80.047,21,77.553V37.505l-7.795,1c-2.097,0.277-3.988-1.214-4.285-3.25L5.649,22.426  c-0.269-0.966-0.141-2,0.365-2.893C6.52,18.642,7.341,18,8.327,17.726l27.499-8.24c0.274-0.084,0.575-0.043,0.82,0.112  c0.244,0.154,0.41,0.406,0.455,0.691c0.614,3.912,3.933,6.751,7.892,6.751c3.965,0,7.366-2.962,7.911-6.89  c0.04-0.29,0.205-0.547,0.451-0.705c0.247-0.157,0.55-0.2,0.829-0.115l27.699,8.403c2.016,0.558,3.216,2.675,2.652,4.713  l-3.265,12.81c-0.273,1.875-1.891,3.282-3.788,3.282l0,0c-0.162,0-0.326-0.01-0.491-0.032L68,37.351v40.202  C68,80.005,66.275,82,64.155,82z M22,35.369c0.242,0,0.477,0.088,0.66,0.249c0.216,0.19,0.34,0.463,0.34,0.751v41.184  C23,78.902,23.82,80,24.829,80h39.326C65.173,80,66,78.902,66,77.553V36.214c0-0.288,0.124-0.561,0.34-0.751  c0.215-0.189,0.501-0.276,0.787-0.241l10.119,1.3c1.019,0.131,1.923-0.596,2.05-1.586c0.006-0.041,0.013-0.081,0.023-0.12  l3.284-12.884c0.274-0.995-0.3-2.008-1.276-2.278l-26.669-8.09c-1.13,4.334-5.099,7.476-9.665,7.476  c-4.565,0-8.451-3.02-9.629-7.327L8.882,19.648c-0.492,0.137-0.886,0.444-1.128,0.871c-0.241,0.427-0.303,0.922-0.172,1.393  l3.289,12.904c0.011,0.039,0.018,0.079,0.023,0.119c0.127,0.991,1.031,1.72,2.057,1.587l8.922-1.146  C21.915,35.371,21.958,35.369,22,35.369z"/>
</svg>