<svg xmlns="http://www.w3.org/2000/svg" xmlns:xlink="http://www.w3.org/1999/xlink" version="1.1" id="Livello_1" x="0px" y="0px" width="90px" height="90px" viewBox="0 0 90 90" enable-background="new 0 0 90 90" xml:space="preserve">
<path fill-rule="evenodd" clip-rule="evenodd" d="M46.165,35c0,0.644-0.521,1.165-1.165,1.165S43.835,35.644,43.835,35  s0.521-1.165,1.165-1.165S46.165,34.356,46.165,35z M45,25.835c-0.644,0-1.165,0.521-1.165,1.165s0.521,1.165,1.165,1.165  s1.165-0.521,1.165-1.165S45.644,25.835,45,25.835z M45,41.835c-0.644,0-1.165,0.521-1.165,1.165s0.521,1.165,1.165,1.165  s1.165-0.521,1.165-1.165S45.644,41.835,45,41.835z M68,77.553V37.351l8.996,1.155c0.164,0.021,0.332,0.032,0.494,0.032l0,0  c1.897,0,3.515-1.407,3.788-3.282l3.265-12.81c0.563-2.038-0.637-4.155-2.652-4.713L54.191,9.33  c-0.279-0.085-0.582-0.042-0.829,0.115c-0.246,0.158-0.411,0.415-0.451,0.705c-0.545,3.928-3.946,6.89-7.911,6.89  c-3.959,0-7.277-2.839-7.892-6.751c-0.045-0.285-0.211-0.537-0.455-0.691c-0.245-0.155-0.546-0.196-0.82-0.112l-27.499,8.24  C7.348,18,6.526,18.642,6.021,19.533c-0.506,0.893-0.635,1.927-0.366,2.893l3.27,12.829c0.297,2.036,2.187,3.527,4.284,3.25l7.791-1  v40.047C21,80.047,22.688,82,24.836,82h39.326C66.282,82,68,80.005,68,77.553z M21.88,35.377l-8.922,1.146  c-1.025,0.132-1.93-0.596-2.057-1.587c-0.006-0.04-0.013-0.08-0.023-0.119L7.589,21.912c-0.131-0.471-0.069-0.966,0.172-1.393  c0.242-0.427,0.636-0.734,1.128-0.871l26.482-7.936C36.549,16.02,40.435,19.04,45,19.04c4.566,0,8.535-3.142,9.665-7.476  l26.669,8.09c0.977,0.271,1.551,1.284,1.276,2.278l-3.284,12.884c-0.011,0.04-0.018,0.08-0.023,0.12  c-0.127,0.991-1.032,1.717-2.051,1.586l-10.12-1.3c-0.286-0.036-0.573,0.051-0.788,0.241C66.127,35.653,66,35.927,66,36.214v41.338  C66,78.902,65.18,80,64.162,80H24.836C23.827,80,23,78.902,23,77.553V36.369c0-0.288-0.121-0.561-0.336-0.751  c-0.184-0.161-0.415-0.249-0.657-0.249C21.965,35.369,21.922,35.371,21.88,35.377z"/>
</svg>